<?xml version="1.0" standalone="no"?><!DOCTYPE svg PUBLIC "-//W3C//DTD SVG 1.1//EN" "http://www.w3.org/Graphics/SVG/1.1/DTD/svg11.dtd"><svg t="1597465371458" class="icon" viewBox="0 0 1024 1024" version="1.1" xmlns="http://www.w3.org/2000/svg" p-id="2717" xmlns:xlink="http://www.w3.org/1999/xlink" width="200" height="200"><defs><style type="text/css"></style></defs><path d="M466.752 658.752a64 64 0 1 0 90.496 90.496l192-192a64 64 0 0 0 0-90.496l-192-192a64 64 0 1 0-90.496 90.496L549.504 448H64a64 64 0 0 0 0 128h485.504z" p-id="2718" fill="#ffffff"></path><path d="M960 0H320a64 64 0 0 0-64 64v128a64 64 0 0 0 128 0V128h512v768H384v-64a64 64 0 0 0-128 0v128a64 64 0 0 0 64 64h640a64 64 0 0 0 64-64V64a64 64 0 0 0-64-64z" p-id="2719" fill="#ffffff"></path></svg>